<svg xmlns="http://www.w3.org/2000/svg" version="1.1" xmlns:xlink="http://www.w3.org/1999/xlink" width="512" height="512" x="0" y="0" viewBox="0 0 682.667 682.667" style="enable-background:new 0 0 512 512" xml:space="preserve" class=""><g><defs><clipPath id="a" clipPathUnits="userSpaceOnUse"><path d="M0 512h512V0H0Z" fill="#55d935" opacity="1" data-original="#000000"></path></clipPath></defs><g clip-path="url(#a)" transform="matrix(1.33333 0 0 -1.33333 0 682.667)"><path d="M0 0c-2.877-16.316 8.018-31.876 24.335-34.754 16.316-2.877 31.876 8.019 34.753 24.335 2.877 16.317-8.018 31.877-24.335 34.754C18.437 27.212 2.877 16.317 0 0Z" style="stroke-width:30;stroke-linecap:round;stroke-linejoin:round;stroke-miterlimit:10;stroke-dasharray:none;stroke-opacity:1" transform="translate(226.456 154.148)" fill="none" stroke="#55d935" stroke-width="30" stroke-linecap="round" stroke-linejoin="round" stroke-miterlimit="10" stroke-dasharray="none" stroke-opacity="" data-original="#000000" opacity="1" class=""></path><path d="M0 0c-15.569-5.666-23.597-22.882-17.93-38.451 5.667-15.57 22.882-23.597 38.451-17.93 15.57 5.666 23.597 22.882 17.931 38.451C32.785-2.36 15.569 5.667 0 0Z" style="stroke-width:30;stroke-linecap:round;stroke-linejoin:round;stroke-miterlimit:10;stroke-dasharray:none;stroke-opacity:1" transform="translate(388.862 349.616)" fill="none" stroke="#55d935" stroke-width="30" stroke-linecap="round" stroke-linejoin="round" stroke-miterlimit="10" stroke-dasharray="none" stroke-opacity="" data-original="#000000" opacity="1" class=""></path><path d="M0 0c-12.692 10.65-31.615 8.995-42.266-3.697-10.649-12.693-8.994-31.616 3.699-42.265 12.692-10.65 31.614-8.995 42.264 3.697C14.348-29.572 12.691-10.649 0 0Z" style="stroke-width:30;stroke-linecap:round;stroke-linejoin:round;stroke-miterlimit:10;stroke-dasharray:none;stroke-opacity:1" transform="translate(395.833 216.382)" fill="none" stroke="#55d935" stroke-width="30" stroke-linecap="round" stroke-linejoin="round" stroke-miterlimit="10" stroke-dasharray="none" stroke-opacity="" data-original="#000000" opacity="1" class=""></path><path d="M0 0c-5.431 12.367-4.466 27.187 3.849 39.062 12.777 18.249 19.884 14.45 31.751 29.59 11.722 14.957 19.87 44.133 19.87 44.133S103.545 41.967 69.381-6.824C61.066-18.698 47.47-24.674 33.99-23.801" style="stroke-width:30;stroke-linecap:round;stroke-linejoin:round;stroke-miterlimit:10;stroke-dasharray:none;stroke-opacity:1" transform="translate(203.743 318.922)" fill="none" stroke="#55d935" stroke-width="30" stroke-linecap="round" stroke-linejoin="round" stroke-miterlimit="10" stroke-dasharray="none" stroke-opacity="" data-original="#000000" opacity="1" class=""></path><path d="M0 0c-7.675 6.79-16.858 11.964-27.078 14.813-12.428 3.466-24.832 3.393-36.265.463-19.212-4.922-37.387 10.39-33.97 29.925l.451 2.575c21.098 119.658 135.203 199.554 254.86 178.455 119.656-21.098 199.554-135.203 178.455-254.86-21.099-119.657-135.203-199.554-254.86-178.455-2.012.355-4.013.735-6.001 1.143C19.841-194.533-6.94-133.862 17.261-82.358a69.473 69.473 0 0 1 3.248 8.291" style="stroke-width:30;stroke-linecap:round;stroke-linejoin:round;stroke-miterlimit:10;stroke-dasharray:none;stroke-opacity:1" transform="translate(157.168 267.39)" fill="none" stroke="#55d935" stroke-width="30" stroke-linecap="round" stroke-linejoin="round" stroke-miterlimit="10" stroke-dasharray="none" stroke-opacity="" data-original="#000000" opacity="1" class=""></path><path d="m0 0 33.926-23.756c-6.31-18.975-22.163-47.851-53.15-92.104-60.187-85.957-154.395-197.084-167.967-187.581-13.573 9.504 58.631 136.039 118.819 221.996C-37.386-37.192-15.674-12.42 0 0Z" style="stroke-width:30;stroke-linecap:round;stroke-linejoin:round;stroke-miterlimit:10;stroke-dasharray:none;stroke-opacity:1" transform="translate(203.855 319.012)" fill="none" stroke="#55d935" stroke-width="30" stroke-linecap="round" stroke-linejoin="round" stroke-miterlimit="10" stroke-dasharray="none" stroke-opacity="" data-original="#000000" opacity="1" class=""></path></g></g></svg>