<svg xmlns="http://www.w3.org/2000/svg" version="1.1" xmlns:xlink="http://www.w3.org/1999/xlink" width="512" height="512" x="0" y="0" viewBox="0 0 512 512" style="enable-background:new 0 0 512 512" xml:space="preserve"><g><path d="M356.418 207.085c8.331-8.331 8.331-21.839 0-30.17s-21.839-8.331-30.17 0l-91.582 91.582-38.248-38.249c-8.331-8.331-21.839-8.331-30.17 0s-8.331 21.839 0 30.17l53.334 53.333c8.331 8.331 21.839 8.331 30.17 0z" fill="#1FA54E" opacity="1" data-original="#000000"></path><path fill-rule="evenodd" d="M0 256c0 210.816 45.184 256 256 256s256-45.184 256-256S466.816 0 256 0 0 45.184 0 256zm42.667 0c0 51.731 2.828 90.387 9.338 119.682 6.403 28.809 15.786 45.882 27.109 57.203 11.323 11.324 28.395 20.708 57.205 27.11 29.294 6.511 67.951 9.338 119.681 9.338 51.731 0 90.387-2.827 119.682-9.338 28.809-6.402 45.882-15.787 57.203-27.11 11.324-11.322 20.708-28.395 27.11-57.203 6.511-29.295 9.338-67.951 9.338-119.682 0-51.73-2.827-90.388-9.338-119.681-6.402-28.809-15.787-45.881-27.11-57.205-11.322-11.323-28.395-20.707-57.203-27.109-29.295-6.51-67.951-9.338-119.682-9.338-51.73 0-90.388 2.828-119.681 9.338-28.809 6.403-45.881 15.786-57.205 27.109s-20.707 28.395-27.109 57.205C45.494 165.612 42.667 204.27 42.667 256z" clip-rule="evenodd" fill="#1FA54E" opacity="1" data-original="#000000"></path></g></svg>