<svg xmlns="http://www.w3.org/2000/svg" version="1.1" xmlns:xlink="http://www.w3.org/1999/xlink" width="512" height="512" x="0" y="0" viewBox="0 0 32 32" style="enable-background:new 0 0 512 512" xml:space="preserve" class=""><g><path d="M28.03 15.665a.9.9 0 0 0-.9.9v9.18c0 1.064-.866 1.93-1.93 1.93H4.83a1.932 1.932 0 0 1-1.93-1.93v-12.23h12.53a.9.9 0 0 0 0-1.8H2.9v-2.62c0-1.059.861-1.92 1.92-1.92h8.54a.9.9 0 0 0 0-1.8H4.82a3.724 3.724 0 0 0-3.72 3.72v16.65a3.734 3.734 0 0 0 3.73 3.73H25.2a3.734 3.734 0 0 0 3.729-3.73v-9.18a.899.899 0 0 0-.899-.9z" fill="#55d935" opacity="1" data-original="#000000"></path><circle cx="5.991" cy="9.435" r=".804" fill="#55d935" opacity="1" data-original="#000000"></circle><path d="M8.019 9.435a.804.804 0 1 0 1.608 0 .804.804 0 0 0-1.608 0z" fill="#55d935" opacity="1" data-original="#000000"></path><circle cx="11.654" cy="9.435" r=".804" fill="#55d935" opacity="1" data-original="#000000"></circle><path d="M19.215 19.768c0-2.314-1.883-4.197-4.197-4.197s-4.197 1.883-4.197 4.197c0 1.216.528 2.303 1.356 3.071-.68.355-1.24.832-1.594 1.408a.9.9 0 1 0 1.534.941c.374-.608 1.416-1.222 2.901-1.222s2.527.613 2.901 1.222a.9.9 0 1 0 1.534-.941c-.354-.576-.914-1.052-1.594-1.408a4.18 4.18 0 0 0 1.356-3.071zm-6.595 0c0-1.322 1.076-2.397 2.397-2.397s2.397 1.075 2.397 2.397-1.076 2.397-2.397 2.397-2.397-1.075-2.397-2.397zM30.281 6.224l-5.885-3.419a2.07 2.07 0 0 0-2.073 0l-5.884 3.419c-.382.222-.62.634-.62 1.076s.238.855.62 1.077l1.553.903v2.705c0 .725.39 1.4 1.018 1.761l2.456 1.416c.584.337 1.239.505 1.895.505s1.311-.168 1.895-.505l2.456-1.416a2.037 2.037 0 0 0 1.018-1.761V9.279l1.553-.902a1.248 1.248 0 0 0-.002-2.153zm-7.054-1.863a.262.262 0 0 1 .265 0L28.55 7.3l-5.059 2.939a.262.262 0 0 1-.265 0L18.168 7.3zm3.701 7.623c0 .083-.045.16-.117.202l-2.456 1.416a2 2 0 0 1-1.991 0l-2.457-1.416a.235.235 0 0 1-.117-.202v-1.659l2.532 1.471a2.07 2.07 0 0 0 2.074 0l2.532-1.471z" fill="#55d935" opacity="1" data-original="#000000"></path></g></svg>