<svg xmlns="http://www.w3.org/2000/svg" version="1.1" viewBox="0 0 1823 2048" width="187" height="210">
<path transform="translate(0)" d="m0 0h1823v2048h-1823z" fill="#55d935"/>
<path transform="translate(0,291)" d="m0 0 3 1 9 12 8 14 3 4 3 1 59 1 1 1v122l-1 208 1 6 7 1h269l15 2 15 4 20 7 17 8 20 12 16 13 11 10 7 8 10 12 14 22 11 23 8 25 5 21 1 7v32l-6 26-7 23-8 18-9 17-12 17-11 13-11 11-11 9-15 10-16 9-17 8-27 9-16 3-25 1 3 15 10 40 16 66 12 50 21 85 22 91 20 81 22 91 18 74 12 50 13 53 18 74 12 49 19 79 11 48 6 28 4 17 2 15h-582z" fill="#1c1c1c"/>
<path transform="translate(1822,291)" d="m0 0h1v1757h-584l1-10 8-31 11-46 14-60 31-124 23-95 12-50 15-60 10-42 16-67 13-52 22-91 24-98 19-80 9-37 10-40 5-15v-6l-7-2-21-1-20-5-21-8-21-10-19-12-13-10-12-11-12-13-13-18-13-24-8-19-5-18-5-31v-20l4-26 4-19 8-20 10-21 11-17 8-10 9-10 8-8 14-11 14-10 16-9 14-7 29-9 22-3 45-1h229l1-336 4-1 58-1 4-4 6-12 8-12z" fill="#1c1c1c"/>
<path transform="translate(0)" d="m0 0h1823v280h-94l4-7 10-10 8-7 11-11 1-2h2l2-4 11-15 5-9 3-10 1-17-3-12-5-10-12-16-11-13-9-10-12-14-11-15-8-14-5-11-3-12-1-31-1-5-11 1-25 11-9 6-8 6-8 10-3 9-1 12 3 16 5 13 9 16 8 10 9 10 22 22 7 8 12 15 9 15 7 15-1 13-3 16-8 16-5 5 1-6 2-6 1-7v-24l-3-14-4-9-8-12-12-14-37-37-9-12-7-14-6-20-2-3h-5l-6 8-13 20-10 22-1 4v7l4 8 10 15 14 11 27 14 16 8 12 9 8 8 8 13 5 11 1 4v16l-3 8-4 2-3-6-1-8-1-11-4-11-11-13-14-10-29-15-14-7-9-6-10-9-5-8-6-13v-2l-5 3-3 5-3 9-1 6v9l3 10 8 9 10 7 16 8 23 11 14 9 14 12 8 10 6 9-1 3-103-1-2 1-1 6 1 35 4 1 89 1 8 2v24l-7 38-6 20-8 18-9 17-8 12-11 14-12 13-11 9-12 9-18 11-21 10-30 10-17 3h-40l-14-2-29-8-23-10-16-9-14-10-13-11-7-6v-2h-2l-7-8-12-15-12-20-10-21-5-16-7-30-1-9v-41l4-5 18-11 11-9 10-9 7-7 9-11 7-10 8-14 8-21 4-18 2-16v-27l-3-21-7-21-8-16-8-13-9-11-3-3v-2h-2v-2l-4-2-7-7-18-13-18-10-17-7-19-4-8-1h-37l-21 4-13 4-16 7-20 12-13 11-7 6-9 11-9 13-9 16-7 18-6 22-1 9v35l4 18 7 21 8 17 11 16 9 11 10 10 13 10 13 9 10 7 1 2v53l-7 28-8 23-8 16-6 11-12 17-13 15-8 8-11 9-14 10-18 10-15 7-30 10-11 2-15 1h-147l-18-1-15-3-24-7-19-8-19-11-17-12-13-12-12-12-13-17-9-15-8-16-8-20-4-17-5-28v-23l1-16 3-7 15-9 9-7 10-9 4-2v-2l5-5 9-10 10-15 8-15 7-19 4-21 1-10v-26l-3-22-7-21-11-21-10-14-9-10-9-9-13-10-16-10-16-8-18-6-20-3h-36l-19 3-21 7-19 10-12 8-10 8-11 10-11 14-11 18-7 15-7 21-2 9-2 21v14l2 18 4 15 7 19 8 16 12 17 9 10 12 12 19 14 11 7 4 4 1 3v45l-2 15-9 30-9 21-11 19-10 14-18 20-14 12-13 9-17 10-20 9-21 7-16 4-7 1-24 1-19-1-17-3-24-7-21-9-18-10-14-10-13-11-18-18-9-12-11-18-8-16-6-15-5-18-4-26-2-27v-8l1-1 14-1 86-1v-20l-1-22-8-1-96-1-5-2 2-4 27-27 14-9 30-13 12-7 9-7 8-10 2-5v-13l-4-11-6-9-3-2-7 20-6 8-10 8-13 6-32 16-11 6-10 8-10 15-5 14-3 18-5-1-1-2 1-26 4-10 7-12 11-10 10-7 18-10 22-11 12-8 7-7 10-15 2-10v-11l-5-12-7-12-10-15-9-10-3-3-1 8-5 16-6 14-8 11-9 10-13 13-8 7-9 8-7 8-10 13-10 17-4 13v17l2 12 4 11v2l-3-1-13-25-2-7v-8l3-12 10-20 11-14 9-11 15-15 8-7 7-7 9-11 9-14 6-15 5-21 1-9-6-12-9-10-10-8-17-9-21-7-5 2-1 7 1 10 1 6-2 4 1 1v8l-2 11-9 19-8 12-9 11-11 12-9 11-12 14-13 18-5 11-2 8v10l4 14 8 16 7 9 9 10 9 9 8 7 10 8 9 7-1 2h-22l-71-1-5-1z" fill="#1c1c1c"/>
<path transform="translate(852,661)" d="m0 0h107l38 1 19 3 30 10 19 9 15 9 12 9 14 12 9 9 9 11 10 14 9 15 8 17 9 27 5 19 1 13v23l-2 18-8 29-8 21-11 21-8 12-8 10-9 10-12 12-14 11-18 11-19 10-29 10-13 3-7 1-24 1-1 4 10 37 8 34 14 56 14 59 16 64 19 79 16 66 14 57 18 74 17 70 12 50 18 74 22 90 16 67 12 50 9 42 4 17 2 16h-611l2-13 9-35 8-33 15-65 32-128 23-95 17-70 22-91 17-70 28-115 8-33 23-94 16-68 12-50 7-27 4-12v-5l-8-2-19-1-18-4-18-6-24-11-15-9-14-10-14-12-10-10-9-11-11-16-10-18-9-20-5-17-6-32-1-8v-11l6-36 5-19 11-25 8-15 8-12 8-10 9-10 8-8 11-9 17-12 21-12 12-5 21-7 16-3 10-1z" fill="#1c1c1c"/>
<path transform="translate(589,976)" d="m0 0h12l8 4 9 8 5 9 2 4v8l-5 9-7 7-6 4-3 1-1 8v933l-1 36-2 41h-11l-1-10-1-58v-941l-2-9-14-9-5-8-1-3v-12l3-8 5-6 10-6z" fill="#1c1c1c"/>
<path transform="translate(1223,976)" d="m0 0h12l10 5 7 7 7 14-1 9-5 8-10 9-6 3v513l-1 456-2 47-1 1h-11l-1-34-1-981-2-4-12-7-4-5-3-9 1-13 3-6 7-7 10-5z" fill="#1c1c1c"/>
<path transform="translate(589,976)" d="m0 0h12l8 4 9 8 5 9 2 4v8l-5 9-7 7-6 4-5 1-1 5-4 2-7-1-3-5v-2l-5-1-11-7-5-8-1-3v-12l3-8 5-6 10-6z" fill="#1c1c1c"/>
<path transform="translate(1223,976)" d="m0 0h12l10 5 7 7 7 14-1 9-5 8-10 9-6 3h-2l-1 4-3 1-7-2-3-3v-2l-5-1-10-6-4-5-3-9 1-13 3-6 7-7 10-5z" fill="#1c1c1c"/>
<path transform="translate(181,82)" d="m0 0 3 3h3v-2l3-1 4 5h-2l-1 8-5 16-6 14-8 11-9 10-13 13-8 7-9 8-7 8-10 13-10 17-4 13v17l2 12 4 11v2l-3-1-13-25-2-7v-8l3-12 10-20 11-14 9-11 15-15 8-7 7-7 9-11 9-14 6-15z" fill="#1c1c1c"/>
<path transform="translate(1640,80)" d="m0 0h1l3 16 5 13 9 16 8 10 9 10 22 22 7 8 12 15 9 15 7 15-1 13-3 16-8 16-5 5 1-6 2-6 1-7v-24l-3-14-4-9-8-12-12-14-37-37-9-12-7-14-6-20-2-3-5-1 4-3 10-1z" fill="#1c1c1c"/>
<path transform="translate(1604,169)" d="m0 0 9 9 8 7 16 9 23 11 14 9 10 9 7 9 8 15 2 7v16l-3 8-4 2-3-6-1-8-1-11-4-11-11-13-14-10-29-15-14-7-2-5-8-7v-2h-2l-1-7 3-1-3-6z" fill="#1c1c1c"/>
<path transform="translate(589,1751)" d="m0 0h1l2 23 1 17 2 16 4 20v11l1 19v61l1 14-1 9-4 4-5 17-1 5h-1z" fill="#1c1c1c"/>
<path transform="translate(601,1932)" d="m0 0 2 3v36l-1 36-2 41h-11l-1-10-1-58v-42l2-1 1 25 6-19 3-2 1-8z" fill="#1c1c1c"/>
<path transform="translate(1223,1769)" d="m0 0h1l3 28 4 25 2 15v24l-1 5v33l1 16-1 10 1 7-3 8-2 11-3 9-3-1v-55z" fill="#1c1c1c"/>
<path transform="translate(189,193)" d="m0 0 2 1-1 5-13 7h-2v2l-5 5 6-3 9-4 12-7 11-2-4 3-9 4-28 14-11 6-10 8-10 15-5 14-3 18-5-1-1-2 1-26 4-10 7-12 11-10 10-7 18-10z" fill="#1c1c1c"/>
<path transform="translate(227,140)" d="m0 0h1l1 12 4 5 3 2-4 9-4 12-6 8-10 8-9 3-7 2-20 10-3 2h-3l2-4 3-1v-2l15-8 1-6 15-9 8-8 10-15 2-10z" fill="#1c1c1c"/>
<path transform="translate(178,121)" d="m0 0h2l-1 5-7 10-9 10-13 13-8 7-9 8-7 8-5 3-1-3 7-8 6-9 4-4 1-2h2l1-3 5-5h2v-2h2v-2h3v-3h3l2-4h3v-2h2l2-4 11-12z" fill="#1c1c1c"/>
<path transform="translate(1233 2e3)" d="m0 0h2l-1 51-1 1h-9l-1-3v-48h2l3 13v5l2 1 2-10z" fill="#1c1c1c"/>
<path transform="translate(600,1994)" d="m0 0h1v32l-1 22h-10l-1-20v-25l2-1 2 6 1 14 2-2z" fill="#1c1c1c"/>
<path transform="translate(1669,268)" d="m0 0 5 5 3 5-1 3-103-1-2 1-1 6 1 35-2-1-1-5v-33l3-5 2-1h91l4-2h3z" fill="#1c1c1c"/>
<path transform="translate(26,324)" d="m0 0h59l1 1v122l-1 54h-1v-175h-33l-25-1z" fill="#1c1c1c"/>
<path transform="translate(194,234)" d="m0 0 3 1-12 6-12 8-15 15-5 7 5 3 6 2 27 1h15l39 1v1h-96l-5-2 2-4 27-27 14-9z" fill="#1c1c1c"/>
<path transform="translate(1739,267)" d="m0 0v3l-3 4 13 3 73 1 1 2h-94l4-7z" fill="#1c1c1c"/>
<path transform="translate(90,273)" d="m0 0 9 6-1 2h-22l-71-1-5-1v-2l84 1 6-1z" fill="#1c1c1c"/>
<path transform="translate(168,324)" d="m0 0h84v1l-66 1-31 1v24h-1l-1-25 1-1z" fill="#1c1c1c"/>
<path transform="translate(1647,125)" d="m0 0 3 1 5 8v2h2l2 3v3h2l2 5 6 2v2l6 5 4 2v2l2 1 2 5-4-1-24-24-7-9z" fill="#1c1c1c"/>
<path transform="translate(227,140)" d="m0 0h1l1 12 4 5 3 2-4 9-3-4h-2l-2-2-3 3 2-5 2-10z" fill="#1c1c1c"/>
<path transform="translate(1248,985)" d="m0 0 5 5 6 12-1 9-3 4 1-6h-3l-1-17-4-5z" fill="#1c1c1c"/>
<path transform="translate(669,305)" d="m0 0 2 1-6 4-2 7-3 18-1 11h-1v-14l1-16 3-7z" fill="#1c1c1c"/>
<path transform="translate(600,2008)" d="m0 0h1v18l-1 22h-7l-1-3 1-3 5-3z" fill="#1c1c1c"/>
<path transform="translate(1298,805)" d="m0 0h1l-1 13-1 14h-2v9l-1 3-1 18h-1v-20l4-26z" fill="#1c1c1c"/>
<path transform="translate(576,982)" d="m0 0 2 1-8 9-1 10-2 11-2-3v-12l3-8 5-6z" fill="#1c1c1c"/>
<path transform="translate(205,197)" d="m0 0 3 1-13 6-12 6-9 4-2-1 7-5 12-5 6-4z" fill="#1c1c1c"/>
<path transform="translate(1588,158)" d="m0 0 3 1 2 3 2 13 1 5-3-4-6-13v-2l-4 1v-2z" fill="#1c1c1c"/>
<path transform="translate(618,990)" d="m0 0 4 4 3 7v8l-3 4v-4h-2l-1-15z" fill="#1c1c1c"/>
<path transform="translate(1210,982)" d="m0 0 2 1-7 8-2 6-2 16h-1l-1-5 1-13 3-6z" fill="#1c1c1c"/>
<path transform="translate(113,33)" d="m0 0h1l1 10 1 6-2 4 1 1v8l-2 11h-1l1-16-1-6 1-5-1-7z" fill="#1c1c1c"/>
<path transform="translate(1647,125)" d="m0 0 3 1 5 8v2h2l2 3-1 3-8-7-2-3z" fill="#1c1c1c"/>
<path transform="translate(1595,143)" d="m0 0 1 3v7l4 8 3 4-1 2-7-8-1-2v-12z" fill="#1c1c1c"/>
</svg>