<svg xmlns="http://www.w3.org/2000/svg" version="1.1" xmlns:xlink="http://www.w3.org/1999/xlink" width="512" height="512" x="0" y="0" viewBox="0 0 512 512.002" style="enable-background:new 0 0 512 512" xml:space="preserve" class=""><g><path d="M494.43 289.574c-23.395-23.394-61.461-23.394-84.84-.015L299.785 399.117a20.004 20.004 0 0 0-5.008 8.348l-23.914 78.723a20.009 20.009 0 0 0 4.82 19.78c3.817 3.91 9 6.036 14.32 6.036 1.778 0 3.575-.238 5.337-.73l80.726-22.36a20.045 20.045 0 0 0 8.79-5.117L494.43 374.43c23.39-23.399 23.39-61.461 0-84.856zM360.32 451.77l-40.613 11.25 11.887-39.13 74.086-73.925 28.293 28.289zm105.836-105.641-3.875 3.867-28.285-28.285 3.863-3.856c7.797-7.796 20.485-7.796 28.286 0 7.796 7.801 7.796 20.489.011 28.274zM229 492c0 11.047-8.953 20-20 20H80c-44.11 0-80-35.887-80-80V80C0 35.887 35.89 0 80 0h245.89c44.114 0 80 35.887 80 80v154c0 11.047-8.952 20-20 20s-20-8.953-20-20V80c0-22.055-17.945-40-40-40H80c-22.055 0-40 17.945-40 40v352c0 22.055 17.945 40 40 40h129c11.047 0 20 8.953 20 20zm97-343c0 11.047-8.953 20-20 20h-59c-11.047 0-20-8.953-20-20s8.953-20 20-20h59c11.047 0 20 8.953 20 20zm-120.578-41.262-46.68 56.496a34.928 34.928 0 0 1-27.039 12.891 34.934 34.934 0 0 1-24.035-9.605 17.474 17.474 0 0 1-.543-.536l-21.453-22.03c-7.707-7.915-7.535-20.575.375-28.282 7.914-7.707 20.574-7.54 28.281.375l17.05 17.508 43.204-52.293c7.035-8.516 19.645-9.715 28.156-2.68 8.516 7.035 9.715 19.64 2.684 28.156zM306 292h-59c-11.047 0-20-8.953-20-20s8.953-20 20-20h59c11.047 0 20 8.953 20 20s-8.953 20-20 20zm-100.578-61.387-46.68 56.5A34.924 34.924 0 0 1 131.703 300a34.943 34.943 0 0 1-24.039-9.605c-.168-.16-.336-.325-.5-.493l-21.453-21.91c-7.727-7.89-7.594-20.554.297-28.281 7.89-7.73 20.555-7.598 28.281.297l17.078 17.437 43.215-52.308c7.035-8.516 19.645-9.711 28.156-2.68 8.516 7.035 9.715 19.64 2.684 28.156zm0 121-46.68 56.5A34.924 34.924 0 0 1 131.703 421a34.943 34.943 0 0 1-24.039-9.605c-.168-.16-.336-.325-.5-.493l-21.453-21.91c-7.727-7.89-7.594-20.554.297-28.281 7.89-7.73 20.555-7.598 28.281.297l17.078 17.437 43.215-52.308c7.035-8.516 19.645-9.711 28.156-2.68 8.516 7.035 9.715 19.64 2.684 28.156zm0 0" fill="#1FA54E" opacity="1" data-original="#000000" class=""></path></g></svg>