<svg xmlns="http://www.w3.org/2000/svg" version="1.1" xmlns:xlink="http://www.w3.org/1999/xlink" width="512" height="512" x="0" y="0" viewBox="0 0 512 512" style="enable-background:new 0 0 512 512" xml:space="preserve" class=""><g><path d="M412 342.67V396c0 22.091-17.909 40-40 40H140c-22.091 0-40-17.909-40-40V256.015M492 396v-86.754" style="stroke-width:40;stroke-linecap:round;stroke-linejoin:round;stroke-miterlimit:10;" fill="none" stroke="#55d935" stroke-width="40" stroke-linecap="round" stroke-linejoin="round" stroke-miterlimit="10" data-original="#000000" class="" opacity="1"></path><path d="M225.249 82.124 44.625 159.062C30.165 165.088 20 179.357 20 196s10.165 30.912 24.625 36.938l180.624 76.938C234.716 313.822 245.104 316 256 316s21.284-2.178 30.751-6.124l180.624-76.938C481.835 226.912 492 212.643 492 196s-10.165-30.912-24.625-36.938L286.751 82.124C277.284 78.178 266.896 76 256 76s-21.284 2.178-30.751 6.124z" style="stroke-width:40;stroke-linecap:round;stroke-linejoin:round;stroke-miterlimit:10;" fill="none" stroke="#55d935" stroke-width="40" stroke-linecap="round" stroke-linejoin="round" stroke-miterlimit="10" data-original="#000000" class="" opacity="1"></path></g></svg>