<svg width="129" height="32" viewBox="0 0 129 32" fill="green" xmlns="http://www.w3.org/2000/svg">
<path d="M6.15042 15.9525C5.93349 15.996 5.71656 16.0158 5.49963 16.0277L9.44056 32V15.8535C9.23166 15.81 9.07097 15.6358 9.07097 15.426C9.07097 15.1727 9.2879 14.9708 9.55304 14.9708C9.81818 14.9708 10.0391 15.1727 10.0391 15.426C10.0391 15.6358 9.88246 15.81 9.67356 15.8535V31.996L13.6105 16.0277C13.3775 16.0158 13.1605 15.9881 12.9557 15.9525C11.5898 15.6556 10.5654 14.4641 10.5654 13.0233C10.5654 11.3765 11.9272 10.0307 13.6065 10.0307H15.6312C17.3064 10.0307 18.6682 11.3765 18.6682 13.0233C18.6682 14.4602 17.6438 15.6556 16.2779 15.9525C16.0731 15.9881 15.8561 16.0158 15.6271 16.0277L19.5641 31.996V15.8535C19.3552 15.81 19.1985 15.6358 19.1985 15.426C19.1985 15.1727 19.4114 14.9708 19.6806 14.9708C19.9497 14.9708 20.1586 15.1727 20.1586 15.426C20.1586 15.6358 20.006 15.81 19.793 15.8535V31.996L23.738 16.0277C23.5211 16.0158 23.3081 15.996 23.0872 15.9525C21.7173 15.6556 20.6929 14.4641 20.6929 13.0233C20.6929 11.3765 22.0548 10.0307 23.734 10.0307H27.7874V4.73033H28.7997L29.2336 4.03761H27.4419C27.7793 3.85552 28.8761 3.21029 28.5306 2.33152C28.5306 2.33152 28.394 2.09401 27.8155 1.48046C27.237 0.858981 27.2973 0.285007 27.3174 0.205839L27.3495 0.0277091C27.3495 0.0277091 26.9518 0.0475012 26.6505 0.245423C26.4295 0.395844 26.313 0.475012 26.2608 0.823355C26.2648 1.41316 26.6023 1.72588 26.8433 1.93963C27.229 2.31173 27.6588 2.71945 27.695 3.15883C27.7311 3.51113 27.4781 3.90302 27.3857 4.03365H27.2009C27.3696 3.89114 27.7151 3.42009 27.466 2.92924C27.233 2.36715 26.6666 2.0663 26.4135 1.73775C26.1604 1.4092 26.1283 0.997526 26.1283 0.997526C26.1283 0.997526 25.5016 1.54379 25.5699 2.03464C25.6422 2.52152 26.4215 2.74715 26.6987 2.94112C26.9799 3.13112 27.1125 3.28946 27.1808 3.49134C27.2451 3.64572 27.1727 3.92281 27.1406 4.02969H26.9277C26.9719 3.95844 27.0442 3.81197 27.0442 3.7051C27.0442 3.55468 27.0121 3.40426 26.759 3.21029C26.5621 3.00445 26.3171 2.96091 25.8511 2.73132C25.5216 2.60465 25.3891 2.14547 25.4132 2.10193C25.4132 2.10193 25.132 2.39485 25.2123 2.68778C25.2886 2.97279 25.5699 3.09154 26.1162 3.32904C26.5621 3.52697 26.7991 3.89906 26.8795 4.02969H25.144V4.72241H26.7148C26.7268 4.82533 26.7349 4.93221 26.7349 5.03909C26.7349 5.85849 26.4014 6.59871 25.8551 7.14102C25.3128 7.67937 24.5655 8.01583 23.734 8.02771H23.6938C22.0106 8.02771 20.6567 6.68976 20.6567 5.03909V4.95992C20.6567 4.94013 20.6567 4.91242 20.6567 4.88471C20.6567 4.857 20.6608 4.83721 20.6608 4.81346L20.6648 4.52449C21.4964 4.14844 22.0748 3.32509 22.0748 2.36319C22.0748 1.06086 20.9942 0 19.6765 0C18.3589 0 17.2742 1.06086 17.2742 2.36319C17.2742 3.30925 17.8366 4.12469 18.6562 4.50074V4.8095L18.6521 4.81346C18.6562 4.83721 18.6562 4.857 18.6602 4.88471V5.04305C18.6602 6.69372 17.2983 8.03167 15.6231 8.03167L14.6068 8.02375L13.5984 8.03167C11.9152 8.03167 10.5574 6.69372 10.5574 5.04305V4.96388C10.5614 4.94013 10.5614 4.91638 10.5614 4.88867C10.5614 4.86096 10.5614 4.84117 10.5654 4.81742V4.5047C11.3809 4.12865 11.9473 3.31321 11.9473 2.36714C11.9473 1.06482 10.8667 0.00395844 9.54501 0.00395844C8.22333 0.00395844 7.14269 1.06482 7.14269 2.36714C7.14269 3.32904 7.72519 4.1524 8.55676 4.52845L8.5648 4.81346C8.5648 4.84117 8.5648 4.86096 8.5648 4.88867V4.96388C8.56881 4.99159 8.56881 5.0193 8.56881 5.04305C8.56881 6.69372 7.20696 8.03167 5.52775 8.03167H5.49159C4.66002 8.01979 3.90879 7.68333 3.37048 7.14498C2.82413 6.60267 2.49472 5.86244 2.49472 5.04305C2.49472 4.94013 2.49874 4.82929 2.50677 4.72637H4.07752V4.03365H2.3501C2.42241 3.90302 2.65943 3.53093 3.10936 3.333C3.65571 3.0955 3.93691 2.97674 4.01324 2.69174C4.09359 2.39881 3.80033 2.10589 3.80033 2.10589C3.82845 2.14943 3.6999 2.60861 3.36646 2.73528C2.90046 2.96487 2.65541 3.00841 2.46258 3.21425C2.20949 3.40821 2.18137 3.55863 2.17735 3.70905C2.17735 3.81593 2.25368 3.9624 2.29787 4.03365H2.08496C2.0488 3.92677 1.98453 3.64968 2.04077 3.4953C2.11308 3.29342 2.24163 3.13508 2.52686 2.94508C2.80405 2.75111 3.5834 2.52944 3.65571 2.03859C3.72802 1.54379 3.08927 1.00148 3.08927 1.00148C3.08927 1.00148 3.05713 1.41316 2.80806 1.74171C2.55899 2.07026 1.98854 2.3711 1.75554 2.9332C1.50647 3.42405 1.85196 3.8951 2.02068 4.03761H1.8399C1.74751 3.90302 1.49442 3.51509 1.53058 3.16279C1.57075 2.71945 1.99256 2.31569 2.38223 1.94359C2.61925 1.72984 2.9567 1.41712 2.96072 0.827313C2.9085 0.478971 2.78798 0.399802 2.57105 0.249381C2.27779 0.0514597 1.87204 0.0316675 1.87204 0.0316675L1.91623 0.209797C1.9323 0.285007 1.99256 0.862939 1.41408 1.48441C0.83559 2.10193 0.70302 2.33548 0.70302 2.33548C0.353519 3.21029 1.45023 3.85948 1.78768 4.04156H0L0.433864 4.73429H1.44621V10.0346H5.49963C7.17884 10.0346 8.53668 11.3805 8.53668 13.0272C8.53668 14.4641 7.51228 15.6596 6.15042 15.9565" fill="url(#paint0_linear_216887_3726)"/>
<path d="M48.3428 22H46.2725V10.2812H48.335V16.4766C48.5433 16.1693 48.7438 15.8828 48.9365 15.6172C49.1344 15.3464 49.3037 15.1224 49.4443 14.9453L53.1553 10.2812H55.6006L51.3037 15.6719L56.4365 22H53.7725L49.9834 17.3359L48.3428 19.4062V22ZM62.2962 22.2344C61.4108 22.2344 60.5931 22.0833 59.8431 21.7812C59.0983 21.4792 58.4499 21.0547 57.8978 20.5078C57.3457 19.9557 56.916 19.3099 56.6087 18.5703C56.3066 17.8255 56.1556 17.0156 56.1556 16.1406C56.1556 15.2604 56.3066 14.4505 56.6087 13.7109C56.916 12.9714 57.3457 12.3281 57.8978 11.7812C58.4499 11.2292 59.0983 10.8021 59.8431 10.5C60.5931 10.1979 61.4134 10.0469 62.304 10.0469C63.1894 10.0469 64.0045 10.1979 64.7493 10.5C65.4941 10.8021 66.1426 11.2292 66.6946 11.7812C67.2467 12.3281 67.6738 12.9714 67.9759 13.7109C68.278 14.4505 68.429 15.2604 68.429 16.1406C68.429 17.0156 68.278 17.8255 67.9759 18.5703C67.6738 19.3099 67.2467 19.9557 66.6946 20.5078C66.1426 21.0547 65.4941 21.4792 64.7493 21.7812C64.0045 22.0833 63.1868 22.2344 62.2962 22.2344ZM62.2962 20.4219C62.8743 20.4219 63.4082 20.3151 63.8978 20.1016C64.3874 19.888 64.8118 19.5885 65.1712 19.2031C65.5358 18.8125 65.817 18.3568 66.015 17.8359C66.2181 17.3151 66.3196 16.75 66.3196 16.1406C66.3196 15.5312 66.2181 14.9661 66.015 14.4453C65.817 13.9245 65.5358 13.4714 65.1712 13.0859C64.8118 12.6953 64.3874 12.3932 63.8978 12.1797C63.4082 11.9661 62.8743 11.8594 62.2962 11.8594C61.7233 11.8594 61.1894 11.9661 60.6946 12.1797C60.2051 12.3932 59.778 12.6953 59.4134 13.0859C59.054 13.4714 58.7728 13.9245 58.5696 14.4453C58.3665 14.9661 58.265 15.5312 58.265 16.1406C58.265 16.75 58.3665 17.3151 58.5696 17.8359C58.7728 18.3568 59.054 18.8125 59.4134 19.2031C59.778 19.5885 60.2051 19.888 60.6946 20.1016C61.1894 20.3151 61.7233 20.4219 62.2962 20.4219ZM79.8434 10.2812V16.7422C79.8434 17.8776 79.6403 18.8568 79.234 19.6797C78.833 20.5026 78.2549 21.1354 77.4996 21.5781C76.7444 22.0156 75.8408 22.2344 74.7887 22.2344C73.7418 22.2344 72.8408 22.0156 72.0856 21.5781C71.3304 21.1354 70.7496 20.5026 70.3434 19.6797C69.9424 18.8568 69.7418 17.8776 69.7418 16.7422V10.2812H71.8043V16.5078C71.8043 17.3568 71.9189 18.0729 72.1481 18.6562C72.3773 19.2396 72.7132 19.6797 73.1559 19.9766C73.6038 20.2734 74.1481 20.4219 74.7887 20.4219C75.4345 20.4219 75.9788 20.2734 76.4215 19.9766C76.8694 19.6797 77.208 19.2396 77.4371 18.6562C77.6663 18.0729 77.7809 17.3568 77.7809 16.5078V10.2812H79.8434ZM86.3753 22H84.2112L88.93 10.2812H91.1253L95.8362 22H93.6721L92.6018 19.2656H87.4456L86.3753 22ZM88.1253 17.4609H91.9221L90.0237 12.6094L88.1253 17.4609ZM96.7975 22V10.2812H100.672C101.652 10.2812 102.493 10.4375 103.196 10.75C103.904 11.0625 104.446 11.5078 104.821 12.0859C105.201 12.6641 105.391 13.3542 105.391 14.1562C105.391 14.9531 105.201 15.6432 104.821 16.2266C104.446 16.8099 103.907 17.2604 103.204 17.5781C102.501 17.8906 101.662 18.0469 100.688 18.0469H98.86V22H96.7975ZM98.86 16.2422H100.477C101.378 16.2422 102.071 16.0599 102.555 15.6953C103.04 15.3255 103.282 14.8125 103.282 14.1562C103.282 13.5 103.037 12.9922 102.547 12.6328C102.063 12.2734 101.373 12.0938 100.477 12.0938H98.86V16.2422ZM105.806 20.7812L106.782 19.2031C107.142 19.4844 107.488 19.7188 107.821 19.9062C108.155 20.0885 108.49 20.224 108.829 20.3125C109.168 20.401 109.511 20.4453 109.86 20.4453C110.308 20.4453 110.696 20.3776 111.024 20.2422C111.358 20.1016 111.615 19.9089 111.798 19.6641C111.98 19.4193 112.071 19.1328 112.071 18.8047C112.071 18.4349 111.959 18.1276 111.735 17.8828C111.517 17.6328 111.227 17.4193 110.868 17.2422C110.509 17.0599 110.123 16.8828 109.712 16.7109C109.337 16.5547 108.957 16.3854 108.571 16.2031C108.191 16.0208 107.845 15.8047 107.532 15.5547C107.22 15.2995 106.967 14.9922 106.774 14.6328C106.587 14.2734 106.493 13.8385 106.493 13.3281C106.493 12.6667 106.66 12.0911 106.993 11.6016C107.326 11.1068 107.787 10.7266 108.376 10.4609C108.964 10.1901 109.636 10.0547 110.392 10.0547C110.923 10.0547 111.467 10.125 112.024 10.2656C112.587 10.401 113.142 10.6094 113.688 10.8906L112.868 12.5547C112.498 12.3359 112.105 12.1667 111.688 12.0469C111.272 11.9219 110.873 11.8594 110.493 11.8594C110.118 11.8594 109.787 11.9193 109.501 12.0391C109.22 12.1536 108.998 12.3203 108.837 12.5391C108.681 12.7526 108.602 13.0026 108.602 13.2891C108.602 13.6276 108.707 13.9141 108.915 14.1484C109.129 14.3828 109.407 14.5911 109.751 14.7734C110.095 14.9505 110.462 15.125 110.852 15.2969C111.243 15.4688 111.634 15.6536 112.024 15.8516C112.42 16.0443 112.78 16.2734 113.102 16.5391C113.431 16.8047 113.691 17.1224 113.884 17.4922C114.082 17.862 114.181 18.3073 114.181 18.8281C114.181 19.5052 114.004 20.1016 113.649 20.6172C113.3 21.1276 112.808 21.526 112.173 21.8125C111.537 22.0938 110.795 22.2344 109.946 22.2344C109.186 22.2344 108.457 22.112 107.759 21.8672C107.061 21.6224 106.41 21.2604 105.806 20.7812ZM115.548 22V10.2812H117.611V22H115.548ZM118.822 20.7812L119.798 19.2031C120.158 19.4844 120.504 19.7188 120.837 19.9062C121.171 20.0885 121.507 20.224 121.845 20.3125C122.184 20.401 122.528 20.4453 122.877 20.4453C123.324 20.4453 123.712 20.3776 124.041 20.2422C124.374 20.1016 124.632 19.9089 124.814 19.6641C124.996 19.4193 125.087 19.1328 125.087 18.8047C125.087 18.4349 124.975 18.1276 124.752 17.8828C124.533 17.6328 124.244 17.4193 123.884 17.2422C123.525 17.0599 123.14 16.8828 122.728 16.7109C122.353 16.5547 121.973 16.3854 121.587 16.2031C121.207 16.0208 120.861 15.8047 120.548 15.5547C120.236 15.2995 119.983 14.9922 119.791 14.6328C119.603 14.2734 119.509 13.8385 119.509 13.3281C119.509 12.6667 119.676 12.0911 120.009 11.6016C120.343 11.1068 120.804 10.7266 121.392 10.4609C121.981 10.1901 122.653 10.0547 123.408 10.0547C123.939 10.0547 124.483 10.125 125.041 10.2656C125.603 10.401 126.158 10.6094 126.705 10.8906L125.884 12.5547C125.515 12.3359 125.121 12.1667 124.705 12.0469C124.288 11.9219 123.89 11.8594 123.509 11.8594C123.134 11.8594 122.804 11.9193 122.517 12.0391C122.236 12.1536 122.015 12.3203 121.853 12.5391C121.697 12.7526 121.619 13.0026 121.619 13.2891C121.619 13.6276 121.723 13.9141 121.931 14.1484C122.145 14.3828 122.423 14.5911 122.767 14.7734C123.111 14.9505 123.478 15.125 123.869 15.2969C124.259 15.4688 124.65 15.6536 125.041 15.8516C125.436 16.0443 125.796 16.2734 126.119 16.5391C126.447 16.8047 126.707 17.1224 126.9 17.4922C127.098 17.862 127.197 18.3073 127.197 18.8281C127.197 19.5052 127.02 20.1016 126.666 20.6172C126.317 21.1276 125.824 21.526 125.189 21.8125C124.554 22.0938 123.811 22.2344 122.962 22.2344C122.202 22.2344 121.473 22.112 120.775 21.8672C120.077 21.6224 119.426 21.2604 118.822 20.7812Z" fill="#050315"/>
<defs>
<linearGradient id="paint0_linear_216887_3726" x1="14.6168" y1="0" x2="14.6168" y2="32" gradientUnits="userSpaceOnUse">
<stop stop-color="#8E2DE2"/>
<stop offset="1" stop-color="#4A00E0"/>
</linearGradient>
</defs>
</svg>
