<svg xmlns="http://www.w3.org/2000/svg" version="1.1" xmlns:xlink="http://www.w3.org/1999/xlink" width="512" height="512" x="0" y="0" viewBox="0 0 32 32" style="enable-background:new 0 0 512 512" xml:space="preserve" class=""><g><path d="M18.12 27.76H7.7a2.653 2.653 0 0 1-2.65-2.65V5.55A2.653 2.653 0 0 1 7.7 2.9h15.25a2.653 2.653 0 0 1 2.65 2.65v14.71a.9.9 0 0 0 1.8 0V5.55a4.455 4.455 0 0 0-4.45-4.45H7.7a4.455 4.455 0 0 0-4.45 4.45v19.56a4.455 4.455 0 0 0 4.45 4.45h10.42a.9.9 0 0 0 0-1.8z" fill="#55d935" opacity="1" data-original="#000000" class=""></path><path d="M21.992 6.431H8.664a.9.9 0 0 0 0 1.8h13.328a.9.9 0 0 0 0-1.8zM22.892 12.662a.9.9 0 0 0-.9-.9H8.664a.9.9 0 0 0 0 1.8h13.328a.9.9 0 0 0 .9-.9zM8.66 18.89h4.18a.9.9 0 0 0 0-1.8H8.66a.9.9 0 0 0 0 1.8zM8.66 24.22h4.54a.9.9 0 0 0 0-1.8H8.66a.9.9 0 0 0 0 1.8zM27.669 25.102l-7.029-7.029a1.589 1.589 0 0 0-1.031-.463l-2.624-.153a1.593 1.593 0 0 0-1.68 1.679l.153 2.625c.022.389.187.755.463 1.031l7.029 7.029c.65.651 1.505.976 2.359.976s1.709-.325 2.359-.976a3.338 3.338 0 0 0 .001-4.719zm-10.553-5.834 2.309.135 5.316 5.315-2.174 2.174-5.316-5.316zm9.281 9.28a1.54 1.54 0 0 1-2.174 0l-.384-.384 2.174-2.174.384.384a1.54 1.54 0 0 1 0 2.174z" fill="#55d935" opacity="1" data-original="#000000" class=""></path></g></svg>