<svg xmlns="http://www.w3.org/2000/svg" version="1.1" xmlns:xlink="http://www.w3.org/1999/xlink" width="512" height="512" x="0" y="0" viewBox="0 0 512 512" style="enable-background:new 0 0 512 512" xml:space="preserve" class=""><g><path d="M40 361.992c0-16.542 13.458-30 30-30h239.265c-9.107-15.079-14.189-27.987-15.77-39.983H181V178.456l63.614 32.403A47.113 47.113 0 0 0 266 215.975a47.12 47.12 0 0 0 21.386-5.116l64.672-32.942v71.943c-11.462 7.012-19.109 19.618-19.109 34.007 0 22.023 40 66.791 40 66.791s40-44.769 40-66.791c0-15.123-7.503-28.279-19.949-35.038v-91.286l33.329-17.457c12.134-6.18 19.671-18.478 19.671-32.094s-7.537-25.915-19.671-32.094L287.386 5.124c-13.391-6.821-29.381-6.821-42.771 0L105.671 75.897C93.537 82.077 86 94.375 86 107.992s7.537 25.915 19.671 32.094L141 158.081v133.927H70c-38.598 0-70 31.385-70 69.983 0 18.084 6.894 34.588 18.191 47.024C6.982 419.923 0 435.153 0 451.992c0 33.084 26.916 60 60 60h452v-40H60c-11.028 0-20-8.972-20-20s8.972-20 20-20h452v-40H70c-16.542 0-30-13.458-30-30zM262.769 40.767a7.145 7.145 0 0 1 6.463 0l131.977 67.225-41.906 21.345-91.792-46.06-.079.157A19.915 19.915 0 0 0 260 81.991c-11.046 0-20 8.954-20 20 0 8.465 5.268 15.686 12.697 18.605l62.346 31.285-45.812 23.335a7.145 7.145 0 0 1-6.463 0l-131.977-67.225zM512 292.008v39.983h-75.368c9.107-15.079 14.189-27.987 15.77-39.983z" fill="#1FA54E" opacity="1" data-original="#000000" class=""></path></g></svg>